<svg xmlns="http://www.w3.org/2000/svg" width="72" height="72" viewBox="0 0 72 72">
    <defs>
        <style>
            .cls-3{fill:#333}.cls-4{fill:#ff5340}.cls-5{fill:#fff}
        </style>
    </defs>
    <g id="Group_19733" data-name="Group 19733" transform="translate(-673 -319.688)">
        <path id="Rectangle_7942" data-name="Rectangle 7942" transform="translate(673 319.688)" style="fill:none;opacity:.2" d="M0 0h72v72H0z"/>
        <g id="Group_19703" data-name="Group 19703">
            <path id="Path_12034" data-name="Path 12034" d="M850.232 128.489V155.1a1.714 1.714 0 0 1-1.714 1.714h-41.387a3.855 3.855 0 0 0 3.816 3.321h38.571a3.857 3.857 0 0 0 3.857-3.857v-24a3.856 3.856 0 0 0-3.143-3.788" transform="translate(-122.089 222.578)" style="fill:#ffeeeb"/>
            <path id="Path_12035" data-name="Path 12035" class="cls-3" d="M849.577 161.571h-38.572a5.278 5.278 0 0 1-5.271-5.271v-24a5.278 5.278 0 0 1 5.271-5.271h38.571a5.278 5.278 0 0 1 5.271 5.271v24a5.278 5.278 0 0 1-5.271 5.271m-38.571-31.714a2.446 2.446 0 0 0-2.443 2.443v24a2.446 2.446 0 0 0 2.443 2.443h38.571a2.446 2.446 0 0 0 2.443-2.443v-24a2.446 2.446 0 0 0-2.443-2.443z" transform="translate(-121.291 223.413)"/>
            <path id="Path_12036" data-name="Path 12036" class="cls-3" d="M873.739 85.767h-12.592a1.414 1.414 0 0 1-1.317-1.93c2.3-5.871 5.837-9.839 9.959-11.172.042-.014.086-.026.13-.036 4.27-.943 6.484.91 7.424 2.1a7.992 7.992 0 0 1 .744 8.066 4.817 4.817 0 0 1-4.348 2.972m-10.431-2.829h10.431a2.1 2.1 0 0 0 1.8-1.377 5.123 5.123 0 0 0-.417-5.079c-1.153-1.46-3.085-1.413-4.527-1.106-3.547 1.18-5.905 4.706-7.289 7.562" transform="translate(-152.148 254.645)"/>
            <path id="Path_12037" data-name="Path 12037" class="cls-4" d="M841.319 86.239h-12.59c-5.192 0-5.67-12.372 3.514-10.342 4.092 1.36 7.221 5.6 9.076 10.342" transform="translate(-132.32 252.759)"/>
            <path id="Path_12038" data-name="Path 12038" class="cls-4" d="M841.515 85.767h-14.664A4.817 4.817 0 0 1 822.5 82.8a7.992 7.992 0 0 1 .744-8.066c.939-1.189 3.153-3.044 7.423-2.1l.141.039c4.071 1.353 7.7 5.424 9.947 11.169zM828.453 75.2a3.624 3.624 0 0 0-2.986 1.28 5.124 5.124 0 0 0-.418 5.079 2.1 2.1 0 0 0 1.8 1.377h10.431c-1.9-3.894-4.489-6.6-7.292-7.563a7.434 7.434 0 0 0-1.536-.174" transform="translate(-130.442 254.645)"/>
            <path id="Path_12039" data-name="Path 12039" class="cls-5" d="M800.177 97.329h48a5.143 5.143 0 0 1 5.143 5.143v7.714a5.143 5.143 0 0 1-5.143 5.143h-48a5.143 5.143 0 0 1-5.143-5.143v-7.714a5.143 5.143 0 0 1 5.143-5.143" transform="translate(-115.177 240.384)"/>
            <path id="Path_12040" data-name="Path 12040" class="cls-5" d="M800.177 97.329h48a5.143 5.143 0 0 1 5.143 5.143v7.714a5.143 5.143 0 0 1-5.143 5.143h-48a5.143 5.143 0 0 1-5.143-5.143v-7.714a5.143 5.143 0 0 1 5.143-5.143" transform="translate(-115.177 240.384)"/>
            <path id="Path_12041" data-name="Path 12041" class="cls-4" d="m860.721 151.493-6.937-4.946-6.937 4.946v-16.2h13.875z" transform="translate(-144.784 218.692)"/>
            <path id="Path_12042" data-name="Path 12042" class="cls-3" d="M848.005 115.285h-48a5.278 5.278 0 0 1-5.271-5.271V102.3a5.278 5.278 0 0 1 5.271-5.271h48a5.278 5.278 0 0 1 5.271 5.271v7.714a5.278 5.278 0 0 1-5.271 5.271m-48-15.429a2.446 2.446 0 0 0-2.443 2.443v7.714a2.446 2.446 0 0 0 2.443 2.443h48a2.446 2.446 0 0 0 2.443-2.443V102.3a2.446 2.446 0 0 0-2.443-2.443z" transform="translate(-115.005 240.555)"/>
        </g>
    </g>
</svg>
